# xmcd CD database file
#
# Track frame offsets:
#	150
#	16850
#	35368
#	53134
#	70395
#	82695
#	96115
#	110440
#	123928
#	140168
#	153860
#	168806
#
# Disc length: 2459 seconds
#
# Revision: 3
# Processed by: cddbd v1.5.2PL0 Copyright (c) Steve Scherf et al.
# Submitted via: CDex 1.51
#
DISCID=8d09990c
DTITLE=Scotty Mccreery - Clear As Day
DYEAR=2011
DGENRE=Country
TTITLE0=Out Of Summertime
TTITLE1=I Love You This Big
TTITLE2=Clear As Day
TTITLE3=The Trouble With Girls
TTITLE4=Water Tower Town
TTITLE5=Walk In The Country
TTITLE6=Better Than That
TTITLE7=Write My Number On Your Hand
TTITLE8=Dirty Dishes
TTITLE9=You Make That Look Good
TTITLE10=Back On The Ground
TTITLE11=That Old King James
EXTD=YEAR: 2011
EXTT0=
EXTT1=
EXTT2=
EXTT3=
EXTT4=
EXTT5=
EXTT6=
EXTT7=
EXTT8=
EXTT9=
EXTT10=
EXTT11=
PLAYORDER=
